
<svg id="Layer_1" data-name="Layer 1" xmlns="http://www.w3.org/2000/svg" width="300" height="360" viewBox="0 0 300 360">
    <defs>
        <style>.cls-1{font-size:22px;}.cls-1,.cls-10,.cls-13,.cls-5,.cls-9{font-family:Arial-SemiBold, Arial;font-weight:600;}.cls-2,.cls-3{font-size:18px;}.cls-14,.cls-2,.cls-3,.cls-6{font-family:Arial-Regular, Arial;}.cls-14,.cls-3,.cls-6{fill:#4d4d4d;}.cls-13,.cls-4,.cls-6{font-size:12px;}.cls-5{font-size:15px;}.cls-7{fill:#1f7315;}.cls-8{fill:none;stroke:gray;stroke-miterlimit:10;stroke-width:0.97px;}.cls-10,.cls-9{font-size:26px;}.cls-9{fill:#fff;}.cls-11{fill:#d29225;}.cls-12{fill:#8c1c04;}.cls-13{fill:#1a1a1a;}.cls-14{font-weight:400;}
        </style>
    </defs>
    <text class="cls-1" transform="translate(9.19 28.02)">Stardew Valley Wordle</text>
    <text class="cls-2" transform="translate(10.19 54.66)">Guess The Word In 6 Tries</text>
    <text class="cls-3" transform="translate(9.57 80.32)">- 
        <tspan class="cls-4" x="14.72" y="0">Guess the word based on Stardew Valley Items</tspan>
    </text>
    <text class="cls-5" transform="translate(10.28 150.92)">Examples</text>
    <text class="cls-6" transform="translate(10.06 102.57)">- Each guess must be a valid 5-letter word. </text>

    <rect class="cls-7" x="10" y="167" width="32.86" height="32.86"/>
    <rect class="cls-8" x="48.17" y="167.48" width="32.86" height="32.86"/>
    <rect class="cls-8" x="86.83" y="167.48" width="32.86" height="32.86"/>
    <rect class="cls-8" x="125.49" y="167.48" width="32.86" height="32.86"/>
    <rect class="cls-8" x="164.14" y="167.48" width="32.86" height="32.86"/>

    <text class="cls-9" transform="translate(18.66 192.64)">J</text>
    <text class="cls-10" transform="translate(55.89 192.64)">E</text>
    <text class="cls-10" transform="translate(94.17 192.64)">L</text>
    <text class="cls-10" transform="translate(133.29 192.84)">L</text>
    <text class="cls-10" transform="translate(171.68 192.64)">Y</text>

    <rect class="cls-8" x="10" y="238" width="32.86" height="32.86"/>
    <rect class="cls-8" x="48.17" y="238.48" width="32.86" height="32.86"/>
    <rect class="cls-11" x="86.83" y="238.48" width="32.86" height="32.86"/>
    <rect class="cls-8" x="125.49" y="238.48" width="32.86" height="32.86"/>
    <rect class="cls-8" x="164.14" y="238.48" width="32.86" height="32.86"/>

    <text class="cls-10" transform="translate(16.97 264.28)">T</text>
    <text class="cls-10" transform="translate(55.56 265.28)">U</text>
    <text class="cls-9" transform="translate(95.85 265.08)">L</text>
    <text class="cls-10" transform="translate(137.98 265.28)">I</text>
    <text class="cls-10" transform="translate(171.81 265.28)">P</text>

    <rect class="cls-8" x="10" y="304" width="32.86" height="32.86"/>
    <rect class="cls-8" x="48.17" y="304.48" width="32.86" height="32.86"/>
    <rect class="cls-8" x="86.83" y="304.48" width="32.86" height="32.86"/>
    <rect class="cls-12" x="125.49" y="304.48" width="32.86" height="32.86"/>
    <rect class="cls-8" x="164.14" y="304.48" width="32.86" height="32.86"/>

    <text class="cls-10" transform="translate(18.15 330.98)">F</text>
    <text class="cls-10" transform="translate(60.94 331.28)">I</text>
    <text class="cls-10" transform="translate(93.98 330.68)">B</text>
    <text class="cls-9" transform="translate(132.66 331.06)">E</text>
    <text class="cls-10" transform="translate(170.36 331.28)">R</text>


    <text class="cls-13" transform="translate(9.98 221.25)">J 
        <tspan class="cls-14" x="12.07" y="0">is in the word and in the correct spot.</tspan>
    </text>
    <text class="cls-13" transform="translate(10.22 288.48)">L
        <tspan class="cls-14" x="6.38" y="0" xml:space="preserve"> is in the word but in the wrong spot.</tspan>
    </text>
    <text class="cls-13" transform="translate(11.17 355.48)">E
        <tspan class="cls-14" x="8.36" y="0" xml:space="preserve"> is not in the word in any spot.</tspan>
    </text>
</svg>